# xmcd
#
# Track frame offsets: 
#        150
#        11815
#        19285
#        31152
#        41634
#        51118
#        62670
#        76018
#        86398
#        97316
#        109961
#        121214
#        132865
#        143858
#        154618
#        164667
#        176126
#        188948
#        202911
#        212852
#        223366
#        234831
#        245866
#        264675
#        277151
#
# Disc length: 3884 seconds
#
# Revision: 3
# Processed by: cddbd v1.5.2PL0 Copyright (c) Steve Scherf et al.
# Submitted via: ExactAudioCopy v0.90b4
#
DISCID=770f2a19
DTITLE=Various Artist - The Northern Soul Story, Vol. 2: The Golden Torch
DYEAR=2007
DGENRE=Soul
TTITLE0=Lou Johnson - Unsatisfied
TTITLE1=The Virginia Wolves - Stay
TTITLE2=Major Lance - Investigate
TTITLE3=Roy Hamilton - Crackin' Up Over You
TTITLE4=The Ovations - They Say
TTITLE5=Bobbi Lynn - Earthquake
TTITLE6=Phillip Mitchell - Free For All (Winner Takes All)
TTITLE7=Little Richard - I Don't Want To Discuss It
TTITLE8=The Triumphs - I'm Coming To Your Rescue
TTITLE9=The Exciters - Blowing Up My Mind
TTITLE10=Robert Knight - Love On A Mountain Top
TTITLE11=The Carstairs - He Who Picks A Rose
TTITLE12=Willie Kendrick - Change Your Ways
TTITLE13=The Glories - I Worship You Baby
TTITLE14=Major Lance - You Don't Want Me No More
TTITLE15=The Cavaliers - Hold On To My Baby
TTITLE16=Herb Ward - Honest To Goodness
TTITLE17=George Carrow - Angel Baby (Don't You Ever Leave Me)
TTITLE18=The Vibrations - Gonna Get Along Without You Now
TTITLE19=Larry Milliams and Johnny Watson - Too Late
TTITLE20=The Sweet Things - I'm In A World Of Trouble
TTITLE21=Johnny Moore - Walk Like A Man
TTITLE22=The Nite-Liters - K-Jee
TTITLE23=The Lorelei - S.T.O.P.
TTITLE24=The Trammps - Scrub Board
EXTD=
EXTT0=
EXTT1=
EXTT2=
EXTT3=
EXTT4=
EXTT5=
EXTT6=
EXTT7=
EXTT8=
EXTT9=
EXTT10=
EXTT11=
EXTT12=
EXTT13=
EXTT14=
EXTT15=
EXTT16=
EXTT17=
EXTT18=
EXTT19=
EXTT20=
EXTT21=
EXTT22=
EXTT23=
EXTT24=
PLAYORDER=
